<svg width="54" height="36" viewBox="0 0 54 36" fill="none" xmlns="http://www.w3.org/2000/svg">
    <path d="M38.8573 30.3437C44.2902 37.5564 52.8712 32.2295 50.8097 25.1918C47.7136 14.6224 46.029 8.73769 45.1528 5.63081C44.6373 3.80379 42.8911 2.52332 40.8966 2.52332H12.9131C10.9187 2.52332 9.18061 3.8109 8.69566 5.64538C6.87162 12.5458 5.24414 18.6006 3.31339 25.1918C1.25182 32.2295 9.83288 37.5564 15.2658 30.3437" stroke="#FFFEFE" stroke-width="4.2756" stroke-linecap="round" stroke-linejoin="round"/>
    <path d="M39.9439 11.7968L39.9685 11.8177" stroke="#FFFEFE" stroke-width="4.2756" stroke-linecap="round" stroke-linejoin="round"/>
    <path d="M36.6624 8.70564L36.687 8.72658" stroke="#FFFEFE" stroke-width="4.2756" stroke-linecap="round" stroke-linejoin="round"/>
    <path d="M36.6624 14.8879L36.687 14.9089" stroke="#FFFEFE" stroke-width="4.2756" stroke-linecap="round" stroke-linejoin="round"/>
    <path d="M33.4244 11.7968L33.449 11.8177" stroke="#FFFEFE" stroke-width="4.2756" stroke-linecap="round" stroke-linejoin="round"/>
    <path d="M16.0391 8.70564V14.8879" stroke="#FFFEFE" stroke-width="4.2756" stroke-linecap="round" stroke-linejoin="round"/>
    <path d="M12.7794 11.7968H19.2988" stroke="#FFFEFE" stroke-width="4.2756" stroke-linecap="round" stroke-linejoin="round"/>
    <path d="M18.2123 27.2526C20.6127 27.2526 22.5586 25.4073 22.5586 23.131C22.5586 20.8547 20.6127 19.0095 18.2123 19.0095C15.8119 19.0095 13.8659 20.8547 13.8659 23.131C13.8659 25.4073 15.8119 27.2526 18.2123 27.2526Z" stroke="#FFFEFE" stroke-width="4.2756" stroke-linecap="round" stroke-linejoin="round"/>
    <path d="M35.5975 27.2526C37.998 27.2526 39.9439 25.4073 39.9439 23.131C39.9439 20.8547 37.998 19.0095 35.5975 19.0095C33.1971 19.0095 31.2512 20.8547 31.2512 23.131C31.2512 25.4073 33.1971 27.2526 35.5975 27.2526Z" stroke="#FFFEFE" stroke-width="4.2756" stroke-linecap="round" stroke-linejoin="round"/>
    </svg>
    