<svg width="36" height="33" viewBox="0 0 36 33" fill="none" xmlns="http://www.w3.org/2000/svg">
    <path d="M31.9208 25.1474C31.1629 23.5764 30.063 22.1494 28.6824 20.9459C27.306 19.7389 25.6755 18.7766 23.8811 18.1121C23.865 18.1051 23.8489 18.1015 23.8328 18.0945C26.336 16.5124 27.9632 13.9352 27.9632 11.0275C27.9632 6.21073 23.5034 2.30806 17.9989 2.30806C12.4944 2.30806 8.03462 6.21073 8.03462 11.0275C8.03462 13.9352 9.66185 16.5124 12.165 18.098C12.1489 18.1051 12.1328 18.1086 12.1168 18.1156C10.3168 18.7801 8.70158 19.7329 7.31542 20.9494C5.93613 22.1539 4.83642 23.5806 4.07703 25.151C3.331 26.6883 2.92865 28.3365 2.89176 30.0064C2.89069 30.044 2.89821 30.0813 2.91388 30.1162C2.92956 30.1512 2.95306 30.183 2.98302 30.2099C3.01297 30.2368 3.04877 30.2581 3.0883 30.2727C3.12783 30.2873 3.1703 30.2948 3.21319 30.2947H5.62391C5.80069 30.2947 5.94132 30.1717 5.94533 30.0205C6.02569 27.3062 7.27123 24.7642 9.47301 22.8375C11.7511 20.844 14.7766 19.747 17.9989 19.747C21.2212 19.747 24.2467 20.844 26.5248 22.8375C28.7266 24.7642 29.9721 27.3062 30.0525 30.0205C30.0565 30.1752 30.1971 30.2947 30.3739 30.2947H32.7846C32.8275 30.2948 32.87 30.2873 32.9095 30.2727C32.949 30.2581 32.9848 30.2368 33.0148 30.2099C33.0447 30.183 33.0683 30.1512 33.0839 30.1162C33.0996 30.0813 33.1071 30.044 33.106 30.0064C33.0659 28.3258 32.6681 26.6909 31.9208 25.1474ZM17.9989 17.0749C16.1547 17.0749 14.419 16.4456 13.1132 15.3029C11.8074 14.1602 11.0882 12.6413 11.0882 11.0275C11.0882 9.41372 11.8074 7.89485 13.1132 6.75218C14.419 5.6095 16.1547 4.98015 17.9989 4.98015C19.8431 4.98015 21.5788 5.6095 22.8846 6.75218C24.1904 7.89485 24.9096 9.41372 24.9096 11.0275C24.9096 12.6413 24.1904 14.1602 22.8846 15.3029C21.5788 16.4456 19.8431 17.0749 17.9989 17.0749Z" fill="white"/>
    </svg>
    